<?xml version="1.0" encoding="UTF-8" standalone="no"?>
<!-- Generator: Adobe Illustrator 19.0.0, SVG Export Plug-In . SVG Version: 6.00 Build 0)  -->

<svg
   xmlns:dc="http://purl.org/dc/elements/1.1/"
   xmlns:cc="http://creativecommons.org/ns#"
   xmlns:rdf="http://www.w3.org/1999/02/22-rdf-syntax-ns#"
   xmlns:svg="http://www.w3.org/2000/svg"
   xmlns="http://www.w3.org/2000/svg"
   xmlns:sodipodi="http://sodipodi.sourceforge.net/DTD/sodipodi-0.dtd"
   xmlns:inkscape="http://www.inkscape.org/namespaces/inkscape"
   version="1.1"
   id="Capa_1"
   x="0px"
   y="0px"
   viewBox="0 0 24.000006 24"
   xml:space="preserve"
   sodipodi:docname="com.github.dbhowell.peeq.svg"
   width="24.000006"
   height="24"
   inkscape:version="0.92.3 (unknown)"><metadata
   id="metadata4595"><rdf:RDF><cc:Work
       rdf:about=""><dc:format>image/svg+xml</dc:format><dc:type
         rdf:resource="http://purl.org/dc/dcmitype/StillImage" /><dc:title></dc:title></cc:Work></rdf:RDF></metadata><defs
   id="defs4593" /><sodipodi:namedview
   pagecolor="#ffffff"
   bordercolor="#666666"
   borderopacity="1"
   objecttolerance="10"
   gridtolerance="10"
   guidetolerance="10"
   inkscape:pageopacity="0"
   inkscape:pageshadow="2"
   inkscape:window-width="3840"
   inkscape:window-height="2034"
   id="namedview4591"
   showgrid="false"
   fit-margin-top="0"
   fit-margin-left="0"
   fit-margin-right="0"
   fit-margin-bottom="0"
   inkscape:zoom="3.3613281"
   inkscape:cx="-83.944143"
   inkscape:cy="12"
   inkscape:window-x="0"
   inkscape:window-y="60"
   inkscape:window-maximized="1"
   inkscape:current-layer="Capa_1" />
<path
   style="fill:#11ad94;stroke-width:0.0468766"
   d="m 9.7802852,17.86462 -2.74749,-4.80717 c -0.24995,-0.43809 -0.97099,-0.43809 -1.22094,0 l -5.71914005,9.89063 c -0.12428,0.21769 -0.12362,0.48478 0.002,0.70176 0.12639,0.21694 0.35778,0.35016 0.60843,0.35016 H 6.4222852 c 0.38867,0 0.70318,-0.31448 0.70318,-0.70313 l 2.39313,-4.42612 c 0.33715,-0.19294 0.45458,-0.66895 0.26163,-1.00613 z"
   id="path4542"
   inkscape:connector-curvature="0" />
<path
   style="fill:#19dec1;stroke-width:0.0468766"
   d="M 23.903235,23.6625 C 23.776705,23.87339 23.551645,24 23.298505,24 H 6.4223452 c -0.25314,0 -0.4782,-0.12661 -0.60472,-0.3375 -0.12662,-0.22505 -0.12662,-0.47817 -0.0141,-0.70312 l 4.1769,-7.71094 2.7986298,1.16723 1.5188,-2.025 c 0.14068,-0.16884 0.35159,-0.26719 0.56259,-0.26719 0.211,0 0.4219,0.0984 0.56258,0.26719 l 1.51881,2.025 2.79863,-1.16723 4.1769,7.71094 c 0.11241,0.22495 0.11241,0.47807 -0.0142,0.70312 z"
   id="path4544"
   inkscape:connector-curvature="0" />
<path
   style="fill:#787780;stroke-width:0.0468766"
   d="m 15.563605,0.70312 v 7.03125 c 0,0.39371 -0.30935,0.70313 -0.70318,0.70313 -0.39382,0 -0.70317,-0.30942 -0.70317,-0.70313 V 0.70312 C 14.157255,0.30933 14.466605,0 14.860425,0 c 0.39383,0 0.70318,0.30933 0.70318,0.70312 z"
   id="path4546"
   inkscape:connector-curvature="0" />
<path
   style="fill:#57555c;stroke-width:0.0468766"
   d="m 15.563605,0.70312 v 7.03125 c 0,0.39371 -0.30935,0.70313 -0.70318,0.70313 V 0 c 0.39383,0 0.70318,0.30933 0.70318,0.70312 z"
   id="path4548"
   inkscape:connector-curvature="0" />
<path
   style="fill:#17ceb4;stroke-width:0.0468766"
   d="M 23.903235,23.6625 C 23.776705,23.87339 23.551645,24 23.298505,24 h -8.43808 v -9.87656 c 0.211,0 0.42191,0.0983 0.56259,0.26718 l 1.5188,2.025 2.79863,-1.16723 4.1769,7.71094 c 0.11246,0.225 0.11246,0.47812 -0.0141,0.70317 z"
   id="path4550"
   inkscape:connector-curvature="0" />
<path
   style="fill:#fd4e26;stroke-width:0.0468766"
   d="m 20.977985,4.42964 c 0.211,0.19688 0.26721,0.49223 0.15475,0.75942 -0.11256,0.26719 -0.36565,0.43594 -0.64697,0.43594 h -6.32856 V 0.70312 C 14.157205,0.30933 14.466555,0 14.860385,0 h 5.62538 c 0.28127,0 0.53441,0.16875 0.64697,0.43594 0.11246,0.26718 0.0562,0.56245 -0.15475,0.75933 l -1.60319,1.61723 z"
   id="path4552"
   inkscape:connector-curvature="0" />
<path
   style="fill:#fd3018;stroke-width:0.0468766"
   d="m 20.977985,4.42964 c 0.211,0.19688 0.26721,0.49223 0.15475,0.75942 -0.11256,0.26719 -0.36565,0.43594 -0.64697,0.43594 h -5.62538 V 0 h 5.62538 c 0.28127,0 0.53441,0.16875 0.64697,0.43594 0.11246,0.26718 0.0562,0.56245 -0.15475,0.75933 l -1.60319,1.61723 z"
   id="path4554"
   inkscape:connector-curvature="0" />
<path
   style="fill:#e5e5e5;stroke-width:0.0468766"
   d="m 19.740405,15.24844 -2.1939,2.77026 c -0.12653,0.18282 -0.33753,0.30942 -0.5625,0.30942 h -0.0141 c -0.22497,0 -0.43597,-0.0984 -0.56258,-0.28125 l -1.54694,-2.06723 -1.54698,2.06723 c -0.14068,0.18282 -0.37976,0.25313 -0.57665,0.28125 -0.22497,0 -0.43596,-0.1266 -0.56249,-0.30942 L 9.9803652,15.24844 14.241545,7.39687 c 0.12662,-0.22504 0.36565,-0.33759 0.6188,-0.33759 0.25314,0 0.49217,0.11255 0.61879,0.33759 z"
   id="path4556"
   inkscape:connector-curvature="0" />
<path
   style="fill:#d9d9d9;stroke-width:0.0468766"
   d="m 19.740405,15.24844 -2.1939,2.77026 c -0.12653,0.18282 -0.33753,0.30942 -0.5625,0.30942 h -0.0141 c -0.22497,0 -0.43597,-0.0984 -0.56258,-0.28125 l -1.54694,-2.06723 V 7.05933 c 0.25314,0 0.49218,0.11254 0.61879,0.33759 z"
   id="path4558"
   inkscape:connector-curvature="0" />
<g
   id="g4560"
   transform="matrix(0.04687821,0,0,0.046875,-8.0484559e-4,0)">
</g>
<g
   id="g4562"
   transform="matrix(0.04687821,0,0,0.046875,-8.0484559e-4,0)">
</g>
<g
   id="g4564"
   transform="matrix(0.04687821,0,0,0.046875,-8.0484559e-4,0)">
</g>
<g
   id="g4566"
   transform="matrix(0.04687821,0,0,0.046875,-8.0484559e-4,0)">
</g>
<g
   id="g4568"
   transform="matrix(0.04687821,0,0,0.046875,-8.0484559e-4,0)">
</g>
<g
   id="g4570"
   transform="matrix(0.04687821,0,0,0.046875,-8.0484559e-4,0)">
</g>
<g
   id="g4572"
   transform="matrix(0.04687821,0,0,0.046875,-8.0484559e-4,0)">
</g>
<g
   id="g4574"
   transform="matrix(0.04687821,0,0,0.046875,-8.0484559e-4,0)">
</g>
<g
   id="g4576"
   transform="matrix(0.04687821,0,0,0.046875,-8.0484559e-4,0)">
</g>
<g
   id="g4578"
   transform="matrix(0.04687821,0,0,0.046875,-8.0484559e-4,0)">
</g>
<g
   id="g4580"
   transform="matrix(0.04687821,0,0,0.046875,-8.0484559e-4,0)">
</g>
<g
   id="g4582"
   transform="matrix(0.04687821,0,0,0.046875,-8.0484559e-4,0)">
</g>
<g
   id="g4584"
   transform="matrix(0.04687821,0,0,0.046875,-8.0484559e-4,0)">
</g>
<g
   id="g4586"
   transform="matrix(0.04687821,0,0,0.046875,-8.0484559e-4,0)">
</g>
<g
   id="g4588"
   transform="matrix(0.04687821,0,0,0.046875,-8.0484559e-4,0)">
</g>
</svg>