<?xml version="1.0" encoding="UTF-8" standalone="no"?>
<svg
   xmlns:dc="http://purl.org/dc/elements/1.1/"
   xmlns:cc="http://creativecommons.org/ns#"
   xmlns:rdf="http://www.w3.org/1999/02/22-rdf-syntax-ns#"
   xmlns:svg="http://www.w3.org/2000/svg"
   xmlns="http://www.w3.org/2000/svg"
   height="128"
   width="128.00002"
   xml:space="preserve"
   viewBox="0 0 128.00002 128"
   y="0px"
   x="0px"
   id="Capa_1"
   version="1.1"><metadata
   id="metadata3859"><rdf:RDF><cc:Work
       rdf:about=""><dc:format>image/svg+xml</dc:format><dc:type
         rdf:resource="http://purl.org/dc/dcmitype/StillImage" /><dc:title></dc:title></cc:Work></rdf:RDF></metadata><defs
   id="defs3857" />
<path
   id="path3806"
   d="M 52.161457,95.278 37.508207,69.63975 c -1.33309,-2.3365 -5.1786,-2.3365 -6.5117,0 l -30.50207971,52.75 c -0.6628,1.161 -0.6593,2.5855 0.011,3.74275 C 1.1794673,127.2895 2.4135573,128 3.7503973,128 H 34.252487 c 2.07289,0 3.75025,-1.67725 3.75025,-3.75 l 12.76338,-23.606 c 1.79812,-1.029 2.42441,-3.56775 1.39534,-5.366 z"
   style="fill:#11ad94;stroke-width:0.25000855" />
<path
   id="path3808"
   d="m 127.48386,126.2 c -0.67479,1.12475 -1.87513,1.8 -3.22522,1.8 H 34.252487 c -1.3501,0 -2.55043,-0.67525 -3.22522,-1.8 -0.6753,-1.20025 -0.6753,-2.55025 -0.075,-3.75 l 22.27677,-41.125 14.92603,6.22525 8.1003,-10.8 c 0.7503,-0.9005 1.87513,-1.425 3.00045,-1.425 1.12533,0 2.25016,0.5245 3.00046,1.425 l 8.1003,10.8 14.926023,-6.22525 22.27678,41.125 c 0.59954,1.19975 0.59954,2.54975 -0.0755,3.75 z"
   style="fill:#19dec1;stroke-width:0.25000855" />
<path
   id="path3810"
   d="m 83.005817,3.75 v 37.5 c 0,2.09975 -1.64986,3.75 -3.75026,3.75 -2.10039,0 -3.75025,-1.65025 -3.75025,-3.75 V 3.75 c 0,-2.10025 1.64986,-3.75 3.75025,-3.75 2.1004,0 3.75026,1.64975 3.75026,3.75 z"
   style="fill:#787780;stroke-width:0.25000855" />
<path
   id="path3812"
   d="m 83.005817,3.75 v 37.5 c 0,2.09975 -1.64986,3.75 -3.75026,3.75 V 0 c 2.1004,0 3.75026,1.64975 3.75026,3.75 z"
   style="fill:#57555c;stroke-width:0.25000855" />
<path
   id="path3814"
   d="m 127.48386,126.2 c -0.67479,1.12475 -1.87513,1.8 -3.22522,1.8 H 79.255557 V 75.325 c 1.12533,0 2.25016,0.5245 3.00046,1.425 l 8.1003,10.8 14.926023,-6.22525 22.27678,41.125 c 0.59979,1.2 0.59979,2.55 -0.0753,3.75025 z"
   style="fill:#17ceb4;stroke-width:0.25000855" />
<path
   id="path3816"
   d="m 111.88255,23.62475 c 1.12532,1.05 1.42509,2.62525 0.8253,4.05025 C 112.10756,29.1 110.75772,30 109.25737,30 H 75.505057 V 3.75 c 0,-2.10025 1.64986,-3.75 3.75025,-3.75 h 30.002063 c 1.5001,0 2.85019,0.9 3.45048,2.325 0.59979,1.425 0.29977,2.99975 -0.8253,4.04975 L 103.33221,15 Z"
   style="fill:#fd4e26;stroke-width:0.25000855" />
<path
   id="path3818"
   d="m 111.88255,23.62475 c 1.12532,1.05 1.42509,2.62525 0.8253,4.05025 C 112.10756,29.1 110.75772,30 109.25737,30 H 79.255307 V 0 h 30.002063 c 1.5001,0 2.85019,0.9 3.45048,2.325 0.59979,1.425 0.29977,2.99975 -0.8253,4.04975 L 103.33221,15 Z"
   style="fill:#fd3018;stroke-width:0.25000855" />
<path
   id="path3820"
   d="M 105.28209,81.325 93.581287,96.09975 c -0.67479,0.975 -1.80012,1.65025 -2.99995,1.65025 h -0.075 c -1.19983,0 -2.32516,-0.525 -3.00045,-1.5 L 79.255567,85.22475 71.005007,96.25 c -0.7503,0.975 -2.02539,1.35 -3.07546,1.5 -1.19983,0 -2.32516,-0.67525 -2.99996,-1.65025 L 53.228777,81.325 75.955087,39.45 c 0.67529,-1.20025 1.95013,-1.8005 3.30022,-1.8005 1.3501,0 2.62493,0.60025 3.30023,1.8005 z"
   style="fill:#e5e5e5;stroke-width:0.25000855" />
<path
   id="path3822"
   d="M 105.28209,81.325 93.581287,96.09975 c -0.67479,0.975 -1.80012,1.65025 -2.99995,1.65025 h -0.075 c -1.19983,0 -2.32516,-0.525 -3.00045,-1.5 l -8.25032,-11.02525 v -47.575 c 1.3501,0 2.62493,0.60025 3.30023,1.8005 z"
   style="fill:#d9d9d9;stroke-width:0.25000855" />
<g
   transform="matrix(0.2500171,0,0,0.25,-0.00436271,0)"
   id="g3824">
</g>
<g
   transform="matrix(0.2500171,0,0,0.25,-0.00436271,0)"
   id="g3826">
</g>
<g
   transform="matrix(0.2500171,0,0,0.25,-0.00436271,0)"
   id="g3828">
</g>
<g
   transform="matrix(0.2500171,0,0,0.25,-0.00436271,0)"
   id="g3830">
</g>
<g
   transform="matrix(0.2500171,0,0,0.25,-0.00436271,0)"
   id="g3832">
</g>
<g
   transform="matrix(0.2500171,0,0,0.25,-0.00436271,0)"
   id="g3834">
</g>
<g
   transform="matrix(0.2500171,0,0,0.25,-0.00436271,0)"
   id="g3836">
</g>
<g
   transform="matrix(0.2500171,0,0,0.25,-0.00436271,0)"
   id="g3838">
</g>
<g
   transform="matrix(0.2500171,0,0,0.25,-0.00436271,0)"
   id="g3840">
</g>
<g
   transform="matrix(0.2500171,0,0,0.25,-0.00436271,0)"
   id="g3842">
</g>
<g
   transform="matrix(0.2500171,0,0,0.25,-0.00436271,0)"
   id="g3844">
</g>
<g
   transform="matrix(0.2500171,0,0,0.25,-0.00436271,0)"
   id="g3846">
</g>
<g
   transform="matrix(0.2500171,0,0,0.25,-0.00436271,0)"
   id="g3848">
</g>
<g
   transform="matrix(0.2500171,0,0,0.25,-0.00436271,0)"
   id="g3850">
</g>
<g
   transform="matrix(0.2500171,0,0,0.25,-0.00436271,0)"
   id="g3852">
</g>
</svg>